<mxfile host="app.diagrams.net" modified="2023-10-05T12:27:30.261Z" agent="Mozilla/5.0 (Windows NT 10.0; Win64; x64) AppleWebKit/537.36 (KHTML, like Gecko) Chrome/117.0.0.0 Safari/537.36" etag="KIRBeARAnZlhsfo72i1k" version="22.0.0" type="device">
  <diagram name="Page-1" id="wzRlAx2gowr9UE-49_hk">
    <mxGraphModel dx="1707" dy="529" grid="1" gridSize="10" guides="1" tooltips="1" connect="1" arrows="1" fold="1" page="1" pageScale="1" pageWidth="827" pageHeight="1169" math="0" shadow="0">
      <root>
        <mxCell id="0" />
        <mxCell id="1" parent="0" />
        <mxCell id="jnctxP4ZQV2Cl5-BTgV0-3" value="" style="edgeStyle=orthogonalEdgeStyle;rounded=0;orthogonalLoop=1;jettySize=auto;html=1;" edge="1" parent="1" source="jnctxP4ZQV2Cl5-BTgV0-1" target="jnctxP4ZQV2Cl5-BTgV0-2">
          <mxGeometry relative="1" as="geometry" />
        </mxCell>
        <mxCell id="jnctxP4ZQV2Cl5-BTgV0-1" value="University" style="rounded=0;whiteSpace=wrap;html=1;" vertex="1" parent="1">
          <mxGeometry x="210" y="80" width="120" height="40" as="geometry" />
        </mxCell>
        <mxCell id="jnctxP4ZQV2Cl5-BTgV0-5" value="" style="edgeStyle=orthogonalEdgeStyle;rounded=0;orthogonalLoop=1;jettySize=auto;html=1;entryX=0.5;entryY=0;entryDx=0;entryDy=0;" edge="1" parent="1" source="jnctxP4ZQV2Cl5-BTgV0-2" target="jnctxP4ZQV2Cl5-BTgV0-4">
          <mxGeometry relative="1" as="geometry" />
        </mxCell>
        <mxCell id="jnctxP4ZQV2Cl5-BTgV0-2" value="Department" style="rounded=0;whiteSpace=wrap;html=1;" vertex="1" parent="1">
          <mxGeometry x="40" y="190" width="120" height="60" as="geometry" />
        </mxCell>
        <mxCell id="jnctxP4ZQV2Cl5-BTgV0-4" value="Proffessor" style="rounded=0;whiteSpace=wrap;html=1;" vertex="1" parent="1">
          <mxGeometry x="30" y="320" width="120" height="60" as="geometry" />
        </mxCell>
        <mxCell id="jnctxP4ZQV2Cl5-BTgV0-6" value="Full Proffesor" style="rounded=0;whiteSpace=wrap;html=1;" vertex="1" parent="1">
          <mxGeometry x="-20" y="450" width="80" height="30" as="geometry" />
        </mxCell>
        <mxCell id="jnctxP4ZQV2Cl5-BTgV0-14" value="Associate" style="rounded=0;whiteSpace=wrap;html=1;" vertex="1" parent="1">
          <mxGeometry x="90" y="450" width="80" height="30" as="geometry" />
        </mxCell>
        <mxCell id="jnctxP4ZQV2Cl5-BTgV0-15" value="" style="endArrow=classic;html=1;rounded=0;exitX=1;exitY=0.833;exitDx=0;exitDy=0;exitPerimeter=0;entryX=1;entryY=0.75;entryDx=0;entryDy=0;" edge="1" parent="1" target="jnctxP4ZQV2Cl5-BTgV0-4">
          <mxGeometry width="50" height="50" relative="1" as="geometry">
            <mxPoint x="210" y="450" as="sourcePoint" />
            <mxPoint x="210" y="350.02" as="targetPoint" />
            <Array as="points">
              <mxPoint x="210" y="440.02" />
            </Array>
          </mxGeometry>
        </mxCell>
        <mxCell id="jnctxP4ZQV2Cl5-BTgV0-16" value="Assistant&lt;br&gt;" style="rounded=0;whiteSpace=wrap;html=1;" vertex="1" parent="1">
          <mxGeometry x="180" y="450" width="110" height="30" as="geometry" />
        </mxCell>
        <mxCell id="jnctxP4ZQV2Cl5-BTgV0-17" value="" style="endArrow=classic;html=1;rounded=0;entryX=0.167;entryY=1;entryDx=0;entryDy=0;exitX=0.888;exitY=-0.2;exitDx=0;exitDy=0;exitPerimeter=0;entryPerimeter=0;" edge="1" parent="1" source="jnctxP4ZQV2Cl5-BTgV0-6" target="jnctxP4ZQV2Cl5-BTgV0-4">
          <mxGeometry width="50" height="50" relative="1" as="geometry">
            <mxPoint x="30" y="450" as="sourcePoint" />
            <mxPoint x="80" y="400" as="targetPoint" />
            <Array as="points">
              <mxPoint x="50" y="440" />
            </Array>
          </mxGeometry>
        </mxCell>
        <mxCell id="jnctxP4ZQV2Cl5-BTgV0-18" value="" style="endArrow=classic;html=1;rounded=0;entryX=0.25;entryY=1;entryDx=0;entryDy=0;exitX=0.35;exitY=-0.133;exitDx=0;exitDy=0;exitPerimeter=0;" edge="1" parent="1" source="jnctxP4ZQV2Cl5-BTgV0-14">
          <mxGeometry width="50" height="50" relative="1" as="geometry">
            <mxPoint x="90" y="450" as="sourcePoint" />
            <mxPoint x="120" y="380" as="targetPoint" />
          </mxGeometry>
        </mxCell>
        <mxCell id="jnctxP4ZQV2Cl5-BTgV0-19" value="Rooms" style="rounded=0;whiteSpace=wrap;html=1;" vertex="1" parent="1">
          <mxGeometry x="340" y="200" width="120" height="30" as="geometry" />
        </mxCell>
        <mxCell id="jnctxP4ZQV2Cl5-BTgV0-20" value="" style="endArrow=classic;html=1;rounded=0;entryX=1;entryY=0.75;entryDx=0;entryDy=0;exitX=0.5;exitY=0;exitDx=0;exitDy=0;" edge="1" parent="1" source="jnctxP4ZQV2Cl5-BTgV0-19" target="jnctxP4ZQV2Cl5-BTgV0-1">
          <mxGeometry width="50" height="50" relative="1" as="geometry">
            <mxPoint x="389" y="180" as="sourcePoint" />
            <mxPoint x="439" y="130" as="targetPoint" />
          </mxGeometry>
        </mxCell>
        <mxCell id="jnctxP4ZQV2Cl5-BTgV0-21" value="Office&lt;br&gt;" style="rounded=0;whiteSpace=wrap;html=1;" vertex="1" parent="1">
          <mxGeometry x="310" y="350" width="90" height="40" as="geometry" />
        </mxCell>
        <mxCell id="jnctxP4ZQV2Cl5-BTgV0-22" value="" style="endArrow=classic;html=1;rounded=0;exitX=0.378;exitY=0.05;exitDx=0;exitDy=0;exitPerimeter=0;" edge="1" parent="1" source="jnctxP4ZQV2Cl5-BTgV0-21">
          <mxGeometry width="50" height="50" relative="1" as="geometry">
            <mxPoint x="310" y="280" as="sourcePoint" />
            <mxPoint x="360" y="230" as="targetPoint" />
          </mxGeometry>
        </mxCell>
        <mxCell id="jnctxP4ZQV2Cl5-BTgV0-23" value="Classrooms" style="rounded=0;whiteSpace=wrap;html=1;" vertex="1" parent="1">
          <mxGeometry x="420" y="350" width="120" height="40" as="geometry" />
        </mxCell>
        <mxCell id="jnctxP4ZQV2Cl5-BTgV0-24" value="" style="endArrow=classic;html=1;rounded=0;entryX=0.683;entryY=1.1;entryDx=0;entryDy=0;entryPerimeter=0;exitX=0.25;exitY=0;exitDx=0;exitDy=0;" edge="1" parent="1" source="jnctxP4ZQV2Cl5-BTgV0-23" target="jnctxP4ZQV2Cl5-BTgV0-19">
          <mxGeometry width="50" height="50" relative="1" as="geometry">
            <mxPoint x="430" y="290" as="sourcePoint" />
            <mxPoint x="450" y="250" as="targetPoint" />
          </mxGeometry>
        </mxCell>
        <mxCell id="jnctxP4ZQV2Cl5-BTgV0-26" value="Person&lt;br&gt;" style="rounded=0;whiteSpace=wrap;html=1;" vertex="1" parent="1">
          <mxGeometry x="160" y="260" width="120" height="30" as="geometry" />
        </mxCell>
        <mxCell id="jnctxP4ZQV2Cl5-BTgV0-27" value="" style="endArrow=classic;html=1;rounded=0;" edge="1" parent="1">
          <mxGeometry width="50" height="50" relative="1" as="geometry">
            <mxPoint x="150" y="340" as="sourcePoint" />
            <mxPoint x="200" y="290" as="targetPoint" />
          </mxGeometry>
        </mxCell>
        <mxCell id="jnctxP4ZQV2Cl5-BTgV0-29" value="" style="edgeStyle=orthogonalEdgeStyle;rounded=0;orthogonalLoop=1;jettySize=auto;html=1;" edge="1" parent="1" source="jnctxP4ZQV2Cl5-BTgV0-28" target="jnctxP4ZQV2Cl5-BTgV0-26">
          <mxGeometry relative="1" as="geometry" />
        </mxCell>
        <mxCell id="jnctxP4ZQV2Cl5-BTgV0-28" value="Employee" style="rounded=0;whiteSpace=wrap;html=1;" vertex="1" parent="1">
          <mxGeometry x="190" y="330" width="80" height="30" as="geometry" />
        </mxCell>
        <mxCell id="jnctxP4ZQV2Cl5-BTgV0-31" value="" style="endArrow=none;html=1;rounded=0;entryX=0.875;entryY=1.033;entryDx=0;entryDy=0;entryPerimeter=0;exitX=0;exitY=0;exitDx=0;exitDy=0;" edge="1" parent="1" source="jnctxP4ZQV2Cl5-BTgV0-21" target="jnctxP4ZQV2Cl5-BTgV0-26">
          <mxGeometry width="50" height="50" relative="1" as="geometry">
            <mxPoint x="280" y="340" as="sourcePoint" />
            <mxPoint x="320" y="290" as="targetPoint" />
          </mxGeometry>
        </mxCell>
        <mxCell id="jnctxP4ZQV2Cl5-BTgV0-32" value="works in" style="text;html=1;align=center;verticalAlign=middle;resizable=0;points=[];autosize=1;strokeColor=none;fillColor=none;" vertex="1" parent="1">
          <mxGeometry x="270" y="290" width="70" height="30" as="geometry" />
        </mxCell>
        <mxCell id="jnctxP4ZQV2Cl5-BTgV0-33" value="Is enrolled" style="text;html=1;align=center;verticalAlign=middle;resizable=0;points=[];autosize=1;strokeColor=none;fillColor=none;" vertex="1" parent="1">
          <mxGeometry y="268" width="80" height="30" as="geometry" />
        </mxCell>
        <mxCell id="jnctxP4ZQV2Cl5-BTgV0-34" value="Class Diagram of University&lt;br style=&quot;font-size: 17px;&quot;&gt;" style="text;html=1;align=center;verticalAlign=middle;resizable=0;points=[];autosize=1;strokeColor=#6c8ebf;fillColor=#dae8fc;fontStyle=5;fontSize=17;" vertex="1" parent="1">
          <mxGeometry x="165" y="20" width="250" height="30" as="geometry" />
        </mxCell>
      </root>
    </mxGraphModel>
  </diagram>
</mxfile>
